<?xml version="1.0" encoding="UTF-8"?> <!-- Generator: Adobe Illustrator 24.1.2, SVG Export Plug-In . SVG Version: 6.00 Build 0) --> <svg xmlns="http://www.w3.org/2000/svg" xmlns:xlink="http://www.w3.org/1999/xlink" version="1.1" id="Camada_1" x="0px" y="0px" viewBox="0 0 250.9 175.2" style="enable-background:new 0 0 250.9 175.2;" xml:space="preserve"> <style type="text/css"> .st0{fill:#60D776;} </style> <g> <g transform="matrix( 1, 0, 0, 1, 0,0) "> <g> <g id="Layer7_0_STROKES_1_FILL"> <g> <path class="st0" d="M59.5,136.8c-0.3,0.3-0.4,0.7-0.3,1.1c0.4,4.5,0.7,9.2,1,14.1c0,0.4,0.2,0.8,0.5,1.1s0.7,0.4,1.1,0.4 c0.4,0,0.8-0.2,1-0.5c0.3-0.3,0.4-0.7,0.4-1.1c-0.3-4.9-0.6-9.6-1-14.2c0-0.4-0.2-0.7-0.6-1c-0.3-0.3-0.7-0.4-1.1-0.3 C60.1,136.3,59.7,136.5,59.5,136.8 M67.8,136.7c-0.4,0-0.8,0.1-1.1,0.3c-0.3,0.3-0.5,0.6-0.5,1c-0.5,4.5-0.9,9.1-1.3,13.8 c0,0.4,0.1,0.8,0.3,1.1c0.3,0.3,0.6,0.5,1,0.6c0.4,0,0.8-0.1,1.1-0.4c0.3-0.2,0.5-0.6,0.6-1c0.4-4.7,0.8-9.3,1.3-13.8 c0-0.4-0.1-0.8-0.4-1.1C68.6,137,68.2,136.8,67.8,136.7 M143.3,108.7c-0.1-0.4-0.4-0.7-0.8-0.9c-0.3-0.2-0.7-0.3-1.1-0.1 c-0.4,0.1-0.7,0.4-0.9,0.7c-0.2,0.4-0.3,0.8-0.1,1.2c1.2,4.3,2.3,8.9,3.3,13.6c0.1,0.4,0.3,0.7,0.6,0.9 c0.4,0.2,0.7,0.3,1.2,0.2c0.4-0.1,0.7-0.3,0.9-0.6c0.2-0.3,0.3-0.7,0.2-1.1C145.7,117.7,144.6,113.1,143.3,108.7 M71.5,109.6 c-0.3,0.2-0.6,0.6-0.6,0.9c-1,4.3-1.9,8.9-2.8,13.7c-0.1,0.4,0,0.8,0.3,1.1c0.3,0.4,0.6,0.6,1,0.6c0.4,0.1,0.8,0,1.1-0.3 c0.4-0.2,0.6-0.5,0.6-0.9c0.8-4.7,1.7-9.2,2.7-13.5c0.1-0.4,0-0.8-0.2-1.2c-0.2-0.3-0.5-0.6-0.9-0.6 C72.2,109.4,71.8,109.4,71.5,109.6 M98.8,65.3c0.4-0.2,0.6-0.5,0.8-0.9c0.2-0.4,0.1-0.8,0-1.1c-0.2-0.4-0.5-0.6-0.9-0.8 c-0.4-0.1-0.8-0.1-1.1,0.1c-3.8,1.9-7.3,5.1-10.7,9.5c-0.2,0.3-0.3,0.7-0.3,1.1c0.1,0.4,0.3,0.7,0.6,1c0.3,0.2,0.7,0.3,1.1,0.3 s0.7-0.2,1-0.6C92.2,69.9,95.4,67,98.8,65.3 M80.7,83c-0.4,0.1-0.7,0.4-0.9,0.8c-1.9,4.1-3.7,8.5-5.3,13.2 c-0.1,0.4-0.1,0.8,0.1,1.1c0.2,0.4,0.5,0.6,0.8,0.8c0.4,0.2,0.8,0.1,1.2-0.1c0.4-0.2,0.6-0.5,0.8-0.9C79,93.3,80.7,89,82.5,85 c0.2-0.4,0.2-0.8,0-1.1c-0.1-0.4-0.4-0.7-0.8-0.9C81.5,82.9,81.1,82.9,80.7,83 M129.9,82.1c-0.1,0.4-0.1,0.8,0.2,1.2 c0.4,0.7,0.7,1.4,1.1,2.1l0,0c1.8,3.4,3.4,7,4.9,10.9c0.2,0.4,0.4,0.7,0.8,0.8c0.4,0.2,0.8,0.2,1.1,0.1 c0.4-0.2,0.7-0.4,0.8-0.8c0.2-0.4,0.2-0.8,0-1.2c-1.6-4-3.2-7.7-5-11.1l0,0c-0.4-0.7-0.8-1.5-1.2-2.2c-0.2-0.4-0.5-0.6-0.9-0.7 s-0.8-0.1-1.1,0.1C130.2,81.4,130,81.7,129.9,82.1 M124.8,70.9c0-0.4-0.1-0.7-0.4-1.1c-3.9-4.3-8-7.1-12.3-8.4 c-0.4-0.1-0.8-0.1-1.1,0.1c-0.4,0.2-0.6,0.5-0.8,0.9c-0.1,0.4-0.1,0.8,0.1,1.2c0.2,0.4,0.5,0.6,0.9,0.7c3.8,1.2,7.5,3.7,11,7.5 c0.3,0.3,0.6,0.5,1,0.5s0.8-0.1,1.1-0.4C124.6,71.6,124.7,71.3,124.8,70.9 M57.7,107.5c-0.1-0.4-0.3-0.7-0.7-0.9 c-0.3-0.2-0.7-0.3-1.1-0.3c-0.4,0.1-0.7,0.3-1,0.6c-0.2,0.4-0.3,0.7-0.3,1.1c0.9,4.4,1.8,9,2.5,13.8c0.1,0.4,0.3,0.8,0.6,1 s0.7,0.3,1.1,0.3c0.4,0,0.8-0.2,1-0.6c0.2-0.3,0.3-0.7,0.3-1.1C59.5,116.5,58.6,111.9,57.7,107.5 M17.4,44.7 c-0.2-0.4-0.4-0.7-0.8-0.8c-4.4-1.9-9.1-3.1-14-3.6c-0.4,0-0.7,0.1-1.1,0.3c-0.3,0.3-0.5,0.6-0.6,1c0,0.4,0.1,0.8,0.4,1.1 s0.6,0.5,1,0.5c4.6,0.4,8.9,1.5,13.1,3.3c0.4,0.2,0.8,0.2,1.1,0c0.4-0.2,0.7-0.4,0.8-0.8C17.6,45.4,17.6,45.1,17.4,44.7 M45.5,78.2c-0.1,0.4-0.1,0.8,0.1,1.1c1.9,4,3.6,8.3,5.1,13.1c0.1,0.4,0.4,0.7,0.8,0.8c0.4,0.2,0.8,0.2,1.1,0.1 c0.4-0.1,0.7-0.3,0.9-0.7c0.2-0.4,0.2-0.8,0.1-1.2c-1.5-4.9-3.3-9.4-5.2-13.5c-0.2-0.4-0.5-0.6-0.8-0.8 c-0.4-0.1-0.8-0.1-1.2,0.1C45.9,77.6,45.7,77.8,45.5,78.2 M30.4,53c-0.3-0.3-0.7-0.4-1.1-0.4s-0.7,0.2-1,0.4 c-0.3,0.3-0.4,0.7-0.4,1.1c0,0.4,0.2,0.8,0.4,1.1c3.2,2.9,6.2,6.4,9.1,10.4c0.3,0.4,0.6,0.6,1,0.6c0.4,0.1,0.8,0,1.1-0.3 c0.4-0.2,0.6-0.5,0.6-0.9c0.1-0.4,0-0.8-0.3-1.2C36.9,59.6,33.7,56,30.4,53 M148.5,135.4c-0.3-0.2-0.7-0.3-1.2-0.3 c-0.4,0.1-0.7,0.3-0.9,0.6s-0.3,0.7-0.3,1.1c0.7,4.5,1.3,9.1,1.8,13.9c0.1,0.4,0.2,0.8,0.5,1c0.3,0.3,0.7,0.4,1.1,0.3 c0.4-0.1,0.8-0.3,1-0.6c0.3-0.3,0.4-0.7,0.4-1.1c-0.5-4.8-1.2-9.5-1.9-14C149,136,148.8,135.7,148.5,135.4 M158.2,137.7 c0.1-0.4,0.1-0.7-0.1-1.1c-0.2-0.4-0.5-0.6-1-0.7c-0.4-0.1-0.7-0.1-1.1,0.1c-0.4,0.2-0.6,0.5-0.7,0.9 c-1.1,4.1-2.1,8.5-3.3,13.2c-0.1,0.4,0,0.8,0.1,1.1c0.2,0.3,0.6,0.6,1,0.6c0.4,0.1,0.8,0,1.1-0.2s0.6-0.5,0.6-0.9 C156.1,146.1,157.1,141.7,158.2,137.7 M165,109.1c-0.4,0.8-0.8,1.5-1.2,2.3h0.1c-1.3,2.8-2.7,6.3-4.1,10.4 c-0.1,0.4-0.1,0.8,0.1,1.1c0.2,0.4,0.5,0.6,0.9,0.7s0.8,0.1,1.1,0c0.4-0.2,0.6-0.5,0.8-0.9c1.4-4,2.7-7.4,3.9-10.1l0,0 c0.4-0.8,0.7-1.5,1.1-2.3c0.2-0.4,0.2-0.8,0.1-1.1c-0.1-0.4-0.4-0.7-0.8-0.8c-0.4-0.2-0.8-0.2-1.2-0.1 C165.5,108.5,165.2,108.7,165,109.1 M180.7,90.3c0.3-0.3,0.4-0.6,0.4-1s-0.2-0.8-0.5-1c-0.3-0.3-0.6-0.4-1.1-0.3 c-0.4,0-0.8,0.2-1,0.5c-1.8,2.1-3.6,4.4-5.4,6.9c-0.2,0.3-0.3,0.7-0.3,1.1c0.1,0.4,0.3,0.7,0.6,0.9c0.3,0.3,0.7,0.3,1.1,0.2 c0.4-0.1,0.7-0.3,1-0.6C177.2,94.5,178.9,92.3,180.7,90.3z"></path> </g> </g> </g> </g> <g transform="matrix( 1, 0, 0, 1, 0,0) "> <g> <g id="Layer6_0_1_STROKES"> <path class="st0" d="M211.3,98.8H211c-10.5-0.1-19.5-3.9-27-11.3c-7.5-7.5-11.3-16.7-11.3-27.3c0-10.5,3.8-19.7,11.3-27.2 c7.6-7.5,16.8-11.3,27.3-11.3S231,25.5,238.5,33c0.8,0.8,1.6,1.7,2.4,2.5c6,7,9,15.3,9,24.7c0,10.6-3.8,19.8-11.3,27.3 C231,95,221.9,98.8,211.3,98.8z M211.3,26.7c-9.3,0-17.1,3.2-23.8,9.8c-6.6,6.6-9.8,14.4-9.8,23.7c0,9.4,3.2,17.1,9.8,23.7 s14.2,9.8,23.4,9.9h0.3c9.3,0,17-3.2,23.7-9.9c6.6-6.6,9.9-14.4,9.9-23.7c0-8.3-2.5-15.3-7.8-21.4c-0.7-0.8-1.4-1.5-2.1-2.2 C228.4,29.9,220.6,26.7,211.3,26.7z"></path> </g> </g> </g> </g> </svg> 